#N canvas 30 229 1135 542 10;
#X obj -93 281 inlet~;
#X text -97 262 audio signal;
#X obj 21 393 *~;
#X obj 233 390 *~;
#X obj 254 155 split 45 225;
#X obj 253 204 expr cos(2 * 3.14159 * $f1 / 360);
#X obj 254 181 - 135;
#X msg 323 181 0;
#X obj 471 203 expr cos(2 * 3.14159 * $f1 / 360);
#X msg 547 180 0;
#X obj 472 154 split 135 315;
#X obj 472 180 - 225;
#X obj 457 387 *~;
#X obj 723 368 *~;
#X obj 714 230 expr cos(2 * 3.14159 * $f1 / 360);
#X msg 790 207 0;
#X obj 715 181 split 225 405;
#X obj 716 128 moses 180;
#X obj 716 151 + 360;
#X obj 715 207 - 315;
#X text 251 23 direction of audio source: [0 \, 360] degrees;
#X obj 34 133 moses 180;
#X obj 32 236 expr cos(2 * 3.14159 * $f1 / 360);
#X msg 108 213 0;
#X obj 33 187 split -45 135;
#X obj 33 213 - 45;
#X obj 85 159 - 360;
#X obj 255 79 split 0 360;
#X obj 255 44 inlet;
#X obj 382 81 print invalid direction;
#X obj 22 432 outlet~;
#X obj 234 429 outlet~;
#X obj 460 426 outlet~;
#X obj 734 434 outlet~;
#X obj 35 366 line~ 100;
#X obj 247 367 line~ 100;
#X obj 472 363 line~ 100;
#X obj 736 334 line~ 100;
#X connect 0 0 2 0;
#X connect 0 0 3 0;
#X connect 0 0 12 0;
#X connect 0 0 13 0;
#X connect 2 0 30 0;
#X connect 3 0 31 0;
#X connect 4 0 6 0;
#X connect 4 1 7 0;
#X connect 5 0 35 0;
#X connect 6 0 5 0;
#X connect 7 0 35 0;
#X connect 8 0 36 0;
#X connect 9 0 36 0;
#X connect 10 0 11 0;
#X connect 10 1 9 0;
#X connect 11 0 8 0;
#X connect 12 0 32 0;
#X connect 13 0 33 0;
#X connect 14 0 37 0;
#X connect 15 0 37 0;
#X connect 16 0 19 0;
#X connect 16 1 15 0;
#X connect 17 0 18 0;
#X connect 17 1 16 0;
#X connect 18 0 16 0;
#X connect 19 0 14 0;
#X connect 21 0 24 0;
#X connect 21 1 26 0;
#X connect 22 0 34 0;
#X connect 23 0 34 0;
#X connect 24 0 25 0;
#X connect 24 1 23 0;
#X connect 25 0 22 0;
#X connect 26 0 24 0;
#X connect 27 0 4 0;
#X connect 27 0 10 0;
#X connect 27 0 17 0;
#X connect 27 0 21 0;
#X connect 27 1 29 0;
#X connect 28 0 27 0;
#X connect 34 0 2 1;
#X connect 35 0 3 1;
#X connect 36 0 12 1;
#X connect 37 0 13 1;
