#N canvas 25 22 494 299 10;
#X obj 37 34 inlet~;
#X obj 177 37 inlet;
#X text 37 16 audio signal;
#X text 175 17 orientation;
#X obj 37 266 outlet~;
#X obj 177 65 moses 180;
#X obj 175 146 / 180;
#X obj 229 93 * -1;
#X obj 229 117 + 360;
#X text 231 169 scaling factor;
#X obj 37 235 lop~ 20000;
#X obj 175 172 * -10000;
#X obj 175 200 + 20000;
#X text 226 198 range of human hearing;
#X connect 0 0 10 0;
#X connect 1 0 5 0;
#X connect 5 0 6 0;
#X connect 5 1 7 0;
#X connect 6 0 11 0;
#X connect 7 0 8 0;
#X connect 8 0 6 0;
#X connect 10 0 4 0;
#X connect 11 0 12 0;
#X connect 12 0 10 1;
