#N canvas 8 32 481 603 10;
#X floatatom 202 199 5 0 0 0 - - -;
#X obj 40 309 VCdirect~;
#X obj 47 88 readsf~;
#X obj 43 216 VCfilter~;
#X obj 43 260 VCreverb~;
#X obj 46 49 inlet;
#X text 180 81 source position offset;
#X obj 143 56 r orientation;
#X obj 143 82 + \$1;
#X obj 144 111 split 0 360;
#X obj 204 138 - 360;
#X obj 147 170 + 0;
#X obj 39 348 dac~ 1 2 3 4;
#X connect 1 0 12 0;
#X connect 1 1 12 1;
#X connect 1 2 12 2;
#X connect 1 3 12 3;
#X connect 2 0 3 0;
#X connect 3 0 4 0;
#X connect 4 0 1 0;
#X connect 5 0 2 0;
#X connect 7 0 8 0;
#X connect 8 0 9 0;
#X connect 9 0 11 0;
#X connect 9 1 10 0;
#X connect 10 0 11 0;
#X connect 11 0 0 0;
#X connect 11 0 3 1;
#X connect 11 0 4 1;
#X connect 11 0 1 1;
