#N canvas 358 22 481 603 10;
#X floatatom 304 194 5 0 0 0 - - -;
#X obj 41 353 VCdirect~;
#X obj 47 88 readsf~;
#X obj 46 49 inlet;
#X text 282 76 source position offset;
#X obj 245 51 r orientation;
#X obj 246 106 split 0 360;
#X obj 306 133 - 360;
#X obj 249 165 + 0;
#X obj 40 392 dac~ 1 2 3 4;
#X obj 245 77 + \$2;
#X obj 139 50 r volume;
#X obj 140 84 route \$1;
#X obj 47 220 *~ 1;
#X obj 140 106 / 100;
#X obj 138 170 dbtorms;
#X text 122 33 100dB to 75 dB;
#X floatatom 90 167 5 0 0 0 - - -;
#X obj 140 127 * 25;
#X obj 140 148 + 75;
#X obj 44 260 VCfilter~;
#X obj 44 304 VCreverb~;
#X obj 138 193 line 100;
#X connect 1 0 9 0;
#X connect 1 1 9 1;
#X connect 1 2 9 2;
#X connect 1 3 9 3;
#X connect 2 0 13 0;
#X connect 3 0 2 0;
#X connect 5 0 10 0;
#X connect 6 0 8 0;
#X connect 6 1 7 0;
#X connect 7 0 8 0;
#X connect 8 0 0 0;
#X connect 8 0 1 1;
#X connect 8 0 20 1;
#X connect 8 0 21 1;
#X connect 10 0 6 0;
#X connect 11 0 12 0;
#X connect 12 0 14 0;
#X connect 13 0 20 0;
#X connect 14 0 18 0;
#X connect 15 0 22 0;
#X connect 18 0 19 0;
#X connect 19 0 15 0;
#X connect 19 0 17 0;
#X connect 20 0 21 0;
#X connect 21 0 1 0;
#X connect 22 0 13 1;
