#N canvas 542 22 386 394 10;
#X obj 37 34 inlet~;
#X obj 176 35 inlet;
#X text 37 16 audio signal;
#X text 172 14 orientation;
#X obj 45 342 outlet~;
#X obj 96 282 freeverb~;
#X msg 173 229 wet \$1;
#X msg 105 227 print;
#X obj 179 75 moses 180;
#X obj 177 156 / 180;
#X obj 231 103 * -1;
#X obj 231 127 + 360;
#X text 233 179 scaling factor;
#X obj 177 182 * 0.3;
#X connect 0 0 5 0;
#X connect 0 0 4 0;
#X connect 1 0 8 0;
#X connect 5 0 4 0;
#X connect 6 0 5 0;
#X connect 7 0 5 0;
#X connect 8 0 9 0;
#X connect 8 1 10 0;
#X connect 9 0 13 0;
#X connect 10 0 11 0;
#X connect 11 0 9 0;
#X connect 13 0 6 0;
