#N canvas 273 36 859 690 10;
#N canvas 467 149 618 513 oscrouting 0;
#X obj 40 265 route squarewave vcf lfo;
#X obj 37 417 send squarewave-target;
#X obj 274 237 OSCroute /squarewave /vcf /lfo;
#X obj 88 373 send vcf-target;
#X obj 132 330 send lfo-target;
#X obj 273 387 send squarewave-params;
#X obj 336 339 send vcf-params;
#X obj 388 290 send lfo-params;
#X obj 55 80 print osc;
#X obj 158 170 print osc-other;
#X text 21 21 receives and prints OSC messages from GUI app;
#X obj 40 53 dumpOSC 7000;
#X obj 40 148 OSCroute /vcon;
#X obj 40 198 OSCroute /orientation /volume;
#X msg 274 57 /vcon/orientation 0;
#X msg 274 82 /vcon/volume 1 0;
#X obj 156 234 print volume;
#X msg 273 105 /vcon/volume 1 100;
#X obj 37 234 s orientation;
#X connect 0 0 1 0;
#X connect 0 1 3 0;
#X connect 0 2 4 0;
#X connect 2 0 5 0;
#X connect 2 1 6 0;
#X connect 2 2 7 0;
#X connect 11 0 8 0;
#X connect 11 0 12 0;
#X connect 12 0 13 0;
#X connect 12 1 9 0;
#X connect 13 0 18 0;
#X connect 13 1 16 0;
#X connect 14 0 12 0;
#X connect 15 0 12 0;
#X connect 17 0 12 0;
#X restore 247 51 pd oscrouting;
#N canvas 553 22 450 300 filtering 0;
#X obj 37 34 inlet~;
#X obj 272 36 inlet;
#X text 37 16 audio signal;
#X text 248 15 orientation;
#X obj 37 238 outlet~;
#X restore 364 402 pd filtering;
#N canvas 355 141 450 300 reverb 0;
#X obj 37 34 inlet~;
#X obj 272 36 inlet;
#X text 37 16 audio signal;
#X text 268 15 orientation;
#X obj 37 238 outlet~;
#X obj 88 178 freeverb~;
#X msg 268 106 wet \$1;
#X connect 0 0 5 0;
#X connect 0 0 4 0;
#X connect 5 0 4 0;
#X connect 6 0 5 0;
#X restore 363 439 pd reverb;
#N canvas 192 210 1096 492 direction 0;
#X obj -93 281 inlet~;
#X text -97 262 audio signal;
#X obj 112 351 *~;
#X obj 236 346 *~;
#X obj 254 155 split 45 225;
#X obj 209 413 dac~ 1 2 3 4;
#X obj 253 204 expr cos(2 * 3.14159 * $f1 / 360);
#X obj 254 181 - 135;
#X msg 323 181 0;
#X obj 471 203 expr cos(2 * 3.14159 * $f1 / 360);
#X msg 547 180 0;
#X obj 472 154 split 135 315;
#X obj 472 180 - 225;
#X obj 455 337 *~;
#X obj 721 318 *~;
#X obj 714 230 expr cos(2 * 3.14159 * $f1 / 360);
#X msg 790 207 0;
#X obj 715 181 split 225 405;
#X obj 716 128 moses 180;
#X obj 716 151 + 360;
#X obj 715 207 - 315;
#X text 251 23 direction of audio source: [0 \, 360] degrees;
#X obj 34 133 moses 180;
#X obj 32 236 expr cos(2 * 3.14159 * $f1 / 360);
#X msg 108 213 0;
#X obj 33 187 split -45 135;
#X obj 33 213 - 45;
#X obj 85 159 - 360;
#X obj 255 79 split 0 360;
#X obj 255 44 inlet;
#X obj 382 81 print invalid direction;
#X connect 0 0 2 0;
#X connect 0 0 3 0;
#X connect 0 0 13 0;
#X connect 0 0 14 0;
#X connect 2 0 5 0;
#X connect 3 0 5 1;
#X connect 4 0 7 0;
#X connect 4 1 8 0;
#X connect 6 0 3 1;
#X connect 7 0 6 0;
#X connect 8 0 3 1;
#X connect 9 0 13 1;
#X connect 10 0 13 1;
#X connect 11 0 12 0;
#X connect 11 1 10 0;
#X connect 12 0 9 0;
#X connect 13 0 5 2;
#X connect 14 0 5 3;
#X connect 15 0 14 1;
#X connect 16 0 14 1;
#X connect 17 0 20 0;
#X connect 17 1 16 0;
#X connect 18 0 19 0;
#X connect 18 1 17 0;
#X connect 19 0 17 0;
#X connect 20 0 15 0;
#X connect 22 0 25 0;
#X connect 22 1 27 0;
#X connect 23 0 2 1;
#X connect 24 0 2 1;
#X connect 25 0 26 0;
#X connect 25 1 24 0;
#X connect 26 0 23 0;
#X connect 27 0 25 0;
#X connect 28 0 4 0;
#X connect 28 0 11 0;
#X connect 28 0 18 0;
#X connect 28 0 22 0;
#X connect 28 1 30 0;
#X connect 29 0 28 0;
#X restore 359 362 pd direction;
#N canvas 0 22 450 300 (subpatch) 0;
#X array inst1 1.4112e+06 float 0;
#X coords 0 1 1.4112e+06 -1 300 100 1;
#X restore 19 395 graph;
#X obj 625 104 soundfiler;
#X obj 515 85 tabplay~ inst1;
#X msg 514 51 bang;
#X obj 151 134 r orientation;
#X obj 258 245 hsl 128 15 0 360 0 1 empty empty empty -2 -8 0 10 -262144
-1 -1 0 1;
#X obj 255 274 s orientation;
#X floatatom 169 164 5 0 0 0 - - -;
#X obj 624 44 loadbang;
#X obj 53 323 dac~ 1 2 3 4;
#X text 250 223 0;
#X text 380 225 360;
#X obj 52 274 VCdirect~;
#X obj 55 140 readsf~;
#X msg 54 54 open audio/04beatles.wav;
#X msg 65 76 1;
#X msg 625 69 read -resize audio/piano.aif inst1;
#X msg 81 96 0;
#X msg 93 119 print;
#X obj 55 181 VCfilter~;
#X obj 55 225 VCreverb~;
#X connect 7 0 6 0;
#X connect 8 0 11 0;
#X connect 8 0 16 1;
#X connect 8 0 23 1;
#X connect 8 0 24 1;
#X connect 9 0 10 0;
#X connect 12 0 20 0;
#X connect 16 0 13 0;
#X connect 16 1 13 1;
#X connect 16 2 13 2;
#X connect 16 3 13 3;
#X connect 17 0 23 0;
#X connect 18 0 17 0;
#X connect 19 0 17 0;
#X connect 20 0 5 0;
#X connect 21 0 17 0;
#X connect 22 0 17 0;
#X connect 23 0 24 0;
#X connect 24 0 16 0;
