#N canvas 643 35 636 437 10;
#N canvas 132 252 427 409 oscrouting 1;
#X obj 55 80 print osc;
#X obj 158 170 print osc-other;
#X text 21 21 receives and prints OSC messages from GUI app;
#X obj 40 53 dumpOSC 7000;
#X obj 40 148 OSCroute /vcon;
#X msg 182 48 /vcon/orientation 0;
#X msg 182 73 /vcon/volume 1 0;
#X msg 181 96 /vcon/volume 1 100;
#X obj 40 252 s orientation;
#X obj 100 229 s volume;
#X msg 183 117 /vcon/volume 4 100;
#X msg 181 236 \; pd dsp 1;
#X obj 40 198 OSCroute /orientation /volume /start /stop;
#X obj 164 296 s prime;
#X obj 164 273 bng 15 250 50 0 empty empty empty 17 7 0 10 -262144
-1 -1;
#X obj 217 295 delay 2000;
#X obj 217 342 s playcontrol;
#X msg 217 319 1;
#X msg 324 236 \; pd dsp 0;
#X obj 293 271 s playcontrol;
#X msg 293 248 0;
#X connect 3 0 0 0;
#X connect 3 0 4 0;
#X connect 4 0 12 0;
#X connect 4 1 1 0;
#X connect 5 0 4 0;
#X connect 6 0 4 0;
#X connect 7 0 4 0;
#X connect 10 0 4 0;
#X connect 12 0 8 0;
#X connect 12 1 9 0;
#X connect 12 2 11 0;
#X connect 12 2 14 0;
#X connect 12 3 18 0;
#X connect 12 3 20 0;
#X connect 14 0 13 0;
#X connect 14 0 15 0;
#X connect 15 0 17 0;
#X connect 17 0 16 0;
#X connect 20 0 19 0;
#X restore 317 52 pd oscrouting;
#X obj 459 93 hsl 128 15 0 360 0 1 empty empty empty -2 -8 0 10 -262144
-1 -1 0 1;
#X obj 456 122 s orientation;
#X text 451 71 0;
#X text 581 73 360;
#X msg 29 227 open audio/04beatles.wav;
#X msg 257 223 open audio/03beatles.wav;
#X msg 28 351 open audio/02beatles.wav;
#X msg 256 352 open audio/01beatles.wav;
#X text 115 30 master start;
#X obj 28 397 VCinst~ 3 180;
#X obj 29 268 VCinst~ 1 0;
#X obj 257 266 VCinst~ 2 90;
#X obj 256 397 VCinst~ 4 270;
#X text 448 51 orientation testing knob:;
#X text 22 29 engine prime;
#X obj 31 49 bng 15 250 50 0 empty empty empty 17 7 0 10 -262144 -1
-1;
#X obj 31 76 s prime;
#X obj 133 51 bng 15 250 50 0 empty empty empty 17 7 0 10 -262144 -1
-1;
#X obj 225 51 bng 15 250 50 0 empty empty empty 17 7 0 10 -262144 -1
-1;
#X text 219 30 stop;
#X obj 29 206 r prime;
#X obj 45 247 r playcontrol;
#X obj 133 117 s playcontrol;
#X msg 133 83 1;
#X msg 225 80 0;
#X obj 257 199 r prime;
#X obj 28 329 r prime;
#X obj 256 329 r prime;
#X obj 272 243 r playcontrol;
#X obj 274 373 r playcontrol;
#X obj 46 372 r playcontrol;
#X connect 1 0 2 0;
#X connect 5 0 11 0;
#X connect 6 0 12 0;
#X connect 7 0 10 0;
#X connect 8 0 13 0;
#X connect 16 0 17 0;
#X connect 18 0 24 0;
#X connect 19 0 25 0;
#X connect 21 0 5 0;
#X connect 22 0 11 0;
#X connect 24 0 23 0;
#X connect 25 0 23 0;
#X connect 26 0 6 0;
#X connect 27 0 7 0;
#X connect 28 0 8 0;
#X connect 29 0 12 0;
#X connect 30 0 13 0;
#X connect 31 0 10 0;
