#N canvas 614 122 517 546 10;
#X text 58 16 5 channels in;
#X obj 366 67 readsf~;
#N canvas 467 149 618 513 oscrouting 0;
#X obj 40 265 route squarewave vcf lfo;
#X obj 37 417 send squarewave-target;
#X obj 274 237 OSCroute /squarewave /vcf /lfo;
#X obj 88 373 send vcf-target;
#X obj 132 330 send lfo-target;
#X obj 273 387 send squarewave-params;
#X obj 336 339 send vcf-params;
#X obj 388 290 send lfo-params;
#X obj 55 80 print osc;
#X obj 158 170 print osc-other;
#X text 21 21 receives and prints OSC messages from GUI app;
#X obj 40 53 dumpOSC 7000;
#X obj 40 148 OSCroute /vcon;
#X obj 40 198 OSCroute /orientation /volume;
#X msg 274 57 /vcon/orientation 0;
#X msg 274 82 /vcon/volume 1 0;
#X obj 156 234 print volume;
#X msg 273 105 /vcon/volume 1 100;
#X obj 37 234 s orientation;
#X connect 0 0 1 0;
#X connect 0 1 3 0;
#X connect 0 2 4 0;
#X connect 2 0 5 0;
#X connect 2 1 6 0;
#X connect 2 2 7 0;
#X connect 11 0 8 0;
#X connect 11 0 12 0;
#X connect 12 0 13 0;
#X connect 12 1 9 0;
#X connect 13 0 18 0;
#X connect 13 1 16 0;
#X connect 14 0 12 0;
#X connect 15 0 12 0;
#X connect 17 0 12 0;
#X restore 234 64 pd oscrouting;
#N canvas 0 22 450 300 filtering 0;
#X obj 37 34 inlet~;
#X obj 272 36 inlet;
#X text 37 16 audio signal;
#X text 248 15 orientation;
#X obj 37 238 outlet~;
#X restore 85 120 pd filtering;
#N canvas 111 160 450 300 reverb 1;
#X obj 37 34 inlet~;
#X obj 272 36 inlet;
#X text 37 16 audio signal;
#X text 268 15 orientation;
#X obj 37 238 outlet~;
#X obj 88 178 freeverb~;
#X msg 268 106 wet \$1;
#X connect 0 0 5 0;
#X connect 0 0 4 0;
#X connect 5 0 4 0;
#X connect 6 0 5 0;
#X restore 84 157 pd reverb;
#N canvas 221 390 682 406 direction 0;
#X obj 41 35 inlet~;
#X obj 254 37 inlet;
#X text 37 16 audio signal;
#X text 248 15 orientation;
#X obj 102 274 dac~;
#X obj 368 73 expr 45+$f1;
#X obj 157 78 - 45;
#X obj 157 104 expr cos(2 * 3.14159 * $f1 / 360);
#X obj 368 104 expr cos(2 * 3.14159 * $f1 / 360);
#X obj 93 204 *~;
#X obj 124 205 *~;
#X connect 0 0 9 0;
#X connect 0 0 10 0;
#X connect 1 0 6 0;
#X connect 1 0 5 0;
#X connect 5 0 8 0;
#X connect 6 0 7 0;
#X connect 7 0 9 1;
#X connect 8 0 10 1;
#X connect 9 0 4 0;
#X connect 10 0 4 1;
#X restore 55 217 pd direction;
#N canvas 0 22 450 300 (subpatch) 0;
#X array inst1 1.4112e+06 float 0;
#X coords 0 1 1.4112e+06 -1 300 100 1;
#X restore 33 357 graph;
#X obj 249 148 soundfiler;
#X obj 53 85 tabplay~ inst1;
#X msg 51 44 bang;
#X msg 247 116 read -resize audio/piano.aif inst1;
#X obj 69 284 dac~ 1 2 3 4;
#X obj 124 186 r orientation;
#X obj 257 244 hsl 128 15 -45 45 0 0 empty empty empty -2 -8 0 10 -262144
-1 -1 0 1;
#X connect 3 0 4 0;
#X connect 4 0 5 0;
#X connect 8 0 5 0;
#X connect 9 0 8 0;
#X connect 10 0 7 0;
#X connect 12 0 5 1;
#X connect 13 0 5 1;
