#N canvas 767 98 450 300 10;
#X obj 140 251 dac~ 1 2 3 4 5 6 7 8;
#X text 58 16 5 channels in;
#X obj 47 54 readsf~;
#N canvas 448 108 618 513 oscrouting 0;
#X obj 40 198 OSCroute /connect;
#X obj 40 265 route squarewave vcf lfo;
#X obj 37 417 send squarewave-target;
#X obj 274 237 OSCroute /squarewave /vcf /lfo;
#X obj 88 373 send vcf-target;
#X obj 132 330 send lfo-target;
#X obj 273 387 send squarewave-params;
#X obj 336 339 send vcf-params;
#X obj 388 290 send lfo-params;
#X obj 55 80 print osc;
#X obj 158 170 print osc-other;
#X text 21 21 receives and prints OSC messages from GUI app;
#X obj 40 53 dumpOSC 7000;
#X msg 274 57 /vcon/orientation 0;
#X obj 40 148 OSCroute /vcon;
#X connect 0 0 1 0;
#X connect 0 1 3 0;
#X connect 1 0 2 0;
#X connect 1 1 4 0;
#X connect 1 2 5 0;
#X connect 3 0 6 0;
#X connect 3 1 7 0;
#X connect 3 2 8 0;
#X connect 12 0 9 0;
#X connect 12 0 14 0;
#X connect 13 0 14 0;
#X connect 14 0 0 0;
#X connect 14 1 10 0;
#X restore 234 64 pd oscrouting;
