#N canvas 479 41 859 690 10;
#N canvas 132 252 618 513 oscrouting 0;
#X obj 55 80 print osc;
#X obj 158 170 print osc-other;
#X text 21 21 receives and prints OSC messages from GUI app;
#X obj 40 53 dumpOSC 7000;
#X obj 40 148 OSCroute /vcon;
#X obj 40 198 OSCroute /orientation /volume;
#X msg 182 48 /vcon/orientation 0;
#X msg 182 73 /vcon/volume 1 0;
#X msg 181 96 /vcon/volume 1 100;
#X obj 37 234 s orientation;
#X obj 156 234 s volume;
#X msg 183 117 /vcon/volume 4 100;
#X connect 3 0 0 0;
#X connect 3 0 4 0;
#X connect 4 0 5 0;
#X connect 4 1 1 0;
#X connect 5 0 9 0;
#X connect 5 1 10 0;
#X connect 6 0 4 0;
#X connect 7 0 4 0;
#X connect 8 0 4 0;
#X connect 11 0 4 0;
#X restore 247 51 pd oscrouting;
#N canvas 192 210 1096 492 direction 0;
#X obj -93 281 inlet~;
#X text -97 262 audio signal;
#X obj 112 351 *~;
#X obj 236 346 *~;
#X obj 254 155 split 45 225;
#X obj 209 413 dac~ 1 2 3 4;
#X obj 253 204 expr cos(2 * 3.14159 * $f1 / 360);
#X obj 254 181 - 135;
#X msg 323 181 0;
#X obj 471 203 expr cos(2 * 3.14159 * $f1 / 360);
#X msg 547 180 0;
#X obj 472 154 split 135 315;
#X obj 472 180 - 225;
#X obj 455 337 *~;
#X obj 721 318 *~;
#X obj 714 230 expr cos(2 * 3.14159 * $f1 / 360);
#X msg 790 207 0;
#X obj 715 181 split 225 405;
#X obj 716 128 moses 180;
#X obj 716 151 + 360;
#X obj 715 207 - 315;
#X text 251 23 direction of audio source: [0 \, 360] degrees;
#X obj 34 133 moses 180;
#X obj 32 236 expr cos(2 * 3.14159 * $f1 / 360);
#X msg 108 213 0;
#X obj 33 187 split -45 135;
#X obj 33 213 - 45;
#X obj 85 159 - 360;
#X obj 255 79 split 0 360;
#X obj 255 44 inlet;
#X obj 382 81 print invalid direction;
#X connect 0 0 2 0;
#X connect 0 0 3 0;
#X connect 0 0 13 0;
#X connect 0 0 14 0;
#X connect 2 0 5 0;
#X connect 3 0 5 1;
#X connect 4 0 7 0;
#X connect 4 1 8 0;
#X connect 6 0 3 1;
#X connect 7 0 6 0;
#X connect 8 0 3 1;
#X connect 9 0 13 1;
#X connect 10 0 13 1;
#X connect 11 0 12 0;
#X connect 11 1 10 0;
#X connect 12 0 9 0;
#X connect 13 0 5 2;
#X connect 14 0 5 3;
#X connect 15 0 14 1;
#X connect 16 0 14 1;
#X connect 17 0 20 0;
#X connect 17 1 16 0;
#X connect 18 0 19 0;
#X connect 18 1 17 0;
#X connect 19 0 17 0;
#X connect 20 0 15 0;
#X connect 22 0 25 0;
#X connect 22 1 27 0;
#X connect 23 0 2 1;
#X connect 24 0 2 1;
#X connect 25 0 26 0;
#X connect 25 1 24 0;
#X connect 26 0 23 0;
#X connect 27 0 25 0;
#X connect 28 0 4 0;
#X connect 28 0 11 0;
#X connect 28 0 18 0;
#X connect 28 0 22 0;
#X connect 28 1 30 0;
#X connect 29 0 28 0;
#X restore 408 407 pd direction;
#N canvas 0 22 450 300 (subpatch) 0;
#X array inst1 1.4112e+06 float 0;
#X coords 0 1 1.4112e+06 -1 300 100 1;
#X restore 515 364 graph;
#X obj 625 104 soundfiler;
#X obj 515 85 tabplay~ inst1;
#X msg 514 51 bang;
#X obj 576 258 hsl 128 15 0 360 0 1 empty empty empty -2 -8 0 10 -262144
-1 -1 0 1;
#X obj 573 287 s orientation;
#X obj 624 44 loadbang;
#X text 568 236 0;
#X text 698 238 360;
#X msg 625 69 read -resize audio/piano.aif inst1;
#X msg 61 219 open audio/04beatles.wav;
#X msg 72 241 1;
#X msg 88 261 0;
#X msg 268 245 1;
#X msg 284 265 0;
#X msg 257 223 open audio/03beatles.wav;
#X obj 211 186 bng 15 250 50 0 empty empty empty 17 7 0 10 -262144
-1 -1;
#X msg 68 390 1;
#X msg 84 410 0;
#X msg 57 368 open audio/02beatles.wav;
#X msg 277 398 1;
#X msg 293 418 0;
#X msg 266 376 open audio/01beatles.wav;
#X text 212 165 master start;
#X obj 64 301 VCinst~ 1 0;
#X obj 266 307 VCinst~ 2 90;
#X obj 60 450 VCinst~ 3 180;
#X obj 269 458 VCinst~ 4 270;
#X connect 5 0 4 0;
#X connect 6 0 7 0;
#X connect 8 0 11 0;
#X connect 11 0 3 0;
#X connect 12 0 26 0;
#X connect 13 0 26 0;
#X connect 14 0 26 0;
#X connect 15 0 27 0;
#X connect 16 0 27 0;
#X connect 17 0 27 0;
#X connect 18 0 13 0;
#X connect 18 0 15 0;
#X connect 18 0 19 0;
#X connect 18 0 22 0;
#X connect 19 0 28 0;
#X connect 20 0 28 0;
#X connect 21 0 28 0;
#X connect 22 0 29 0;
#X connect 23 0 29 0;
#X connect 24 0 29 0;
